<svg xmlns="http://www.w3.org/2000/svg" width="20.3" height="20.3" viewBox="0 0 20.3 20.3">
    <defs>
        <style>.a{fill:#e2e2e2;}</style>
    </defs>
    <g transform="translate(0 -0.001)">
        <g transform="translate(0 0.001)">
            <path class="a"
                  d="M19.261,8.02l-1.425-.242A8.045,8.045,0,0,0,17.264,6.4l.84-1.175a1.25,1.25,0,0,0-.136-1.616L16.7,2.342a1.245,1.245,0,0,0-.886-.369,1.232,1.232,0,0,0-.725.233l-1.179.84a7.962,7.962,0,0,0-1.433-.589l-.237-1.408A1.253,1.253,0,0,0,11,0H9.219A1.253,1.253,0,0,0,7.981,1.048L7.735,2.49a7.847,7.847,0,0,0-1.378.581l-1.166-.84a1.253,1.253,0,0,0-1.616.136L2.307,3.631a1.255,1.255,0,0,0-.136,1.616l.848,1.192a7.859,7.859,0,0,0-.564,1.387l-1.408.237A1.253,1.253,0,0,0,0,9.3v1.785a1.253,1.253,0,0,0,1.047,1.238l1.442.246a7.847,7.847,0,0,0,.581,1.378L2.235,15.11a1.25,1.25,0,0,0,.136,1.616L3.634,17.99a1.245,1.245,0,0,0,.886.369,1.232,1.232,0,0,0,.725-.233l1.192-.848a8.022,8.022,0,0,0,1.34.551l.237,1.425A1.253,1.253,0,0,0,9.253,20.3h1.79a1.253,1.253,0,0,0,1.238-1.047l.242-1.425a8.046,8.046,0,0,0,1.382-.572l1.175.84a1.245,1.245,0,0,0,.729.233h0a1.245,1.245,0,0,0,.886-.369L17.959,16.7a1.255,1.255,0,0,0,.136-1.616l-.84-1.179a7.988,7.988,0,0,0,.572-1.382l1.425-.237A1.253,1.253,0,0,0,20.3,11.044V9.258A1.238,1.238,0,0,0,19.261,8.02Zm-.1,3.024a.11.11,0,0,1-.093.11l-1.781.3a.569.569,0,0,0-.458.42,6.789,6.789,0,0,1-.738,1.777.573.573,0,0,0,.025.623l1.047,1.476a.115.115,0,0,1-.013.144L15.89,17.154a.108.108,0,0,1-.081.034.1.1,0,0,1-.064-.021L14.274,16.12a.573.573,0,0,0-.623-.025,6.789,6.789,0,0,1-1.777.738.563.563,0,0,0-.42.458l-.3,1.781a.11.11,0,0,1-.11.093H9.257a.11.11,0,0,1-.11-.093l-.3-1.781a.569.569,0,0,0-.42-.458,7.049,7.049,0,0,1-1.739-.712.587.587,0,0,0-.288-.076.558.558,0,0,0-.331.106L4.588,17.205a.126.126,0,0,1-.064.021.114.114,0,0,1-.081-.034L3.18,15.929a.115.115,0,0,1-.013-.144l1.043-1.463a.581.581,0,0,0,.025-.628,6.725,6.725,0,0,1-.746-1.773.581.581,0,0,0-.458-.42L1.238,11.2a.11.11,0,0,1-.093-.11V9.3a.11.11,0,0,1,.093-.11l1.768-.3a.573.573,0,0,0,.462-.424,6.782,6.782,0,0,1,.725-1.781.566.566,0,0,0-.03-.619L3.108,4.585a.115.115,0,0,1,.013-.144L4.385,3.177a.108.108,0,0,1,.081-.034.1.1,0,0,1,.064.021L5.992,4.208a.581.581,0,0,0,.628.025,6.725,6.725,0,0,1,1.773-.746.581.581,0,0,0,.42-.458l.305-1.794a.11.11,0,0,1,.11-.093h1.785a.11.11,0,0,1,.11.093L11.42,3a.573.573,0,0,0,.424.462,6.883,6.883,0,0,1,1.819.746.573.573,0,0,0,.623-.025L15.75,3.135a.126.126,0,0,1,.064-.021.114.114,0,0,1,.081.034l1.264,1.264a.115.115,0,0,1,.013.144L16.123,6.027a.573.573,0,0,0-.025.623,6.789,6.789,0,0,1,.738,1.777.563.563,0,0,0,.458.42l1.781.3a.11.11,0,0,1,.093.11v1.785Z"
                  transform="translate(0 -0.001)"/>
            <path class="a"
                  d="M140.481,136a4.381,4.381,0,1,0,4.381,4.381A4.383,4.383,0,0,0,140.481,136Zm0,7.616a3.236,3.236,0,1,1,3.236-3.236A3.238,3.238,0,0,1,140.481,143.617Z"
                  transform="translate(-130.328 -130.234)"/>
        </g>
    </g>
</svg>